# xmcd
#
# Track frame offsets:
# 182
# 16582
# 33007
# 48982
# 65932
# 79807
# 100282
# 123682
# 143932
# 159757
# 175657
# 193132
# 212407
# 227405
# 245632
# 266257
#
# Disc length: 3773 seconds
#
#
# Revision: 0
# Processed by: cddbd v1.5.1PL0 Copyright (c) Steve Scherf et al.
# Submitted via: FreeRIP 2.51 
#
DISCID=cf0ebb10
DTITLE=Various Artist - So In Love - Disc 2
DYEAR=1991
DGENRE=Easy Listening
TTITLE0=Three Times A Lady
TTITLE1=How 'bout Us
TTITLE2=Burn For You
TTITLE3=Have You Ever Been In Love
TTITLE4=When I Fall In Love
TTITLE5=Only My Heart Calling
TTITLE6=All Of My Heart
TTITLE7=Sometimes Love Just Ain't Enough
TTITLE8=Tonight I Celebrate My Love
TTITLE9=Shake You Down
TTITLE10=Suddenly
TTITLE11=First Time Ever I Saw Your Face
TTITLE12=Without Your Love
TTITLE13=Babe
TTITLE14=You're The First, The Last, My Everything
TTITLE15=Love and Other Bruises
EXTD=
EXTT0=
EXTT1=
EXTT2=
EXTT3=
EXTT4=
EXTT5=
EXTT6=
EXTT7=
EXTT8=
EXTT9=
EXTT10=
EXTT11=
EXTT12=
EXTT13=
EXTT14=
EXTT15=
PLAYORDER=
